<svg xmlns="http://www.w3.org/2000/svg" xmlns:xlink="http://www.w3.org/1999/xlink" width="32mm" height="32mm" viewBox="0 0 32 32"><defs><linearGradient id="a"><stop offset="0" style="stop-color:#ff1919;stop-opacity:1"/><stop offset="1" style="stop-color:#00fd2d;stop-opacity:1"/></linearGradient><linearGradient xlink:href="#a" id="b" x1="8.669" x2="28.753" y1="5.69" y2="31.746" gradientUnits="userSpaceOnUse"/><clipPath id="c" clipPathUnits="userSpaceOnUse"><path d="M-17.073-14.632h82.318v32.165h-82.318z" style="opacity:.372284;fill:#bcbab7;stroke:#000;stroke-width:13.1494;stroke-linecap:butt;stroke-linejoin:miter;stroke-dasharray:none;stroke-dashoffset:0;paint-order:markers stroke fill" transform="matrix(.6876 .7261 -.70124 .71292 0 0)"/></clipPath></defs><rect width="20" height="26" x="6.543" y="3.044" clip-path="url(#c)" ry="0" style="fill:url(#b);fill-opacity:1;stroke:#000;stroke-width:3.228;stroke-linecap:butt;stroke-linejoin:miter;stroke-dasharray:none;stroke-dashoffset:0;paint-order:markers stroke fill"/><path d="M7.296 11.61c.02.06.038.12.059.179.19.546.154.386.349 1.067.24.838.427 1.69.62 2.54.297 1.286.545 2.583.798 3.88.014.031.01.111.042.096.182-.086.36-.198.492-.35.069-.078.05-.203.078-.304.04-.148.083-.295.126-.443.108-.364.242-.8.352-1.16.326-1.09.706-2.165 1.194-3.194.305-.643.54-1.057.876-1.678l-.367.165c-.315.588-.583 1.074-.87 1.678A23.644 23.644 0 0 0 9.822 17.3l-.51 1.62c-.033.101-.184.24-.099.305.097.073.523-.034.32-.17-.12-.458-.215-.921-.316-1.383-.18-.823-.354-1.646-.537-2.468-.117-.515-.276-1.223-.4-1.737-.096-.4-.27-1.082-.384-1.495-.038-.138-.082-.274-.12-.412-.018-.06-.032-.12-.047-.181l-.434.232zM16.474 12.072c.003.884-.036 1.768-.136 2.646-.031.276-.073.55-.11.824-.118.776-.267 1.55-.505 2.3-.068.214-.114.324-.192.524-.086.226-.242.415-.336.636l-.025.075.445-.209.026-.07c.1-.215.244-.407.32-.633.072-.202.11-.3.173-.519.216-.748.353-1.516.463-2.287.036-.274.076-.548.108-.823.104-.893.164-1.79.208-2.687l-.439.223zM13.229 12.507a63.053 63.053 0 0 0 2.55-.506c.855-.198 1.685-.492 2.511-.785.266-.098.534-.19.801-.284l.38-.297c-.271.098-.543.192-.813.294-.83.302-1.665.601-2.527.804-.83.185-1.666.351-2.508.48l-.394.294zM21.338 11.028c-.006.096-.01.193-.02.29-.032.309-.15 1.194-.183 1.441-.127.967-.26 1.932-.403 2.896-.165 1.04-.354 2.08-.674 3.086-.116.362-.226.638-.36.988l-.144.34.419-.193.133-.336c.123-.341.233-.634.34-.984.306-1.004.482-2.04.641-3.076.143-.967.273-1.935.416-2.902.042-.28.087-.56.13-.84.035-.21.073-.42.105-.63.015-.102.025-.205.038-.308l-.438.228z" style="fill:#bcbab7;stroke:#000;stroke-width:1.228;stroke-linecap:butt;stroke-linejoin:miter;stroke-dasharray:none;stroke-dashoffset:0;paint-order:markers stroke fill"/><path d="M21.705 10.905c.358-.088.716-.178 1.077-.252.4-.076.796-.17 1.183-.298.205-.066.404-.147.613-.2.09-.02.182-.024.273-.027l.4-.291a1.706 1.706 0 0 0-.28.02c-.215.048-.418.134-.626.203a8.29 8.29 0 0 1-1.181.304c-.357.07-.71.163-1.065.241l-.394.3zM21.091 14.285a18.234 18.234 0 0 0 1.606-.349c.432-.12.853-.272 1.272-.429.22-.08.438-.159.662-.226l.386-.298c-.226.066-.447.147-.668.227-.422.16-.844.318-1.279.44-.524.134-1.049.268-1.585.342l-.394.293z" style="fill:#bcbab7;stroke:#000;stroke-width:1.228;stroke-linecap:butt;stroke-linejoin:miter;stroke-dasharray:none;stroke-dashoffset:0;paint-order:markers stroke fill"/><path d="m20.901 2.003 6.637 6.767" style="fill:none;stroke:#000;stroke-width:1.665;stroke-linecap:butt;stroke-linejoin:miter;stroke-dasharray:none;stroke-opacity:1"/><path d="M74.184 75.357c.334-.624 1.546-3.983 2-5.541.6-2.062 1.302-5.154 1.752-7.72.275-1.561 1.152-7.366 1.175-7.77.003-.047.192.345.42.87.483 1.112.493.894-.236 5.33-.85 5.172-1.68 8.59-2.928 12.055-.942 2.618-.957 2.64-2.02 2.969-.292.09-.306.074-.163-.193z" style="opacity:.372284;fill:#bcbab7;stroke:#000;stroke-width:.859776;stroke-linecap:butt;stroke-linejoin:miter;stroke-dasharray:none;stroke-dashoffset:0;paint-order:markers stroke fill" transform="scale(.26458)"/><path d="M79.583 50.86c.032-.095.277-1.924.546-4.066l.56-4.475c.06-.464.153-.622.465-.784l.39-.202.226.59c.218.572.21.688-.258 3.653-.265 1.685-.524 3.401-.574 3.814-.112.92-.261 1.23-.59 1.23a.628.628 0 0 0-.422.205c-.206.248-.423.27-.343.034z" style="opacity:.372284;fill:#b7bcb7;fill-opacity:1;stroke:#000;stroke-width:.859776;stroke-linecap:butt;stroke-linejoin:miter;stroke-dasharray:none;stroke-dashoffset:0;paint-order:markers stroke fill" transform="scale(.26458)"/><path d="M57.52 71.858c0-.035.278-.578.618-1.207 1.126-2.084 2.042-5.103 2.807-9.262.76-4.132 1.356-9.923 1.356-13.186v-1.079l.617-.165c.34-.09.662-.165.718-.165.186 0-.235 5.366-.729 9.291-.846 6.728-1.951 11.316-3.381 14.047-.547 1.043-.653 1.162-1.3 1.462-.389.18-.706.299-.706.264zM74.618 74.502c1.709-4.198 2.83-8.757 3.957-16.077l.596-3.877.301.666c.166.366.305.947.31 1.291.01.777-.917 6.347-1.498 8.998-.782 3.568-2.282 8.352-2.928 9.339-.177.27-.82.644-1.105.644-.018 0 .147-.443.367-.984zM80.685 53.368c.42-.307.888-.46 2.11-.692 3.117-.59 5.346-1.224 8.865-2.521 1.155-.426 2.127-.748 2.16-.716.41.411-6.293 2.796-10.593 3.768-1.35.306-2.596.555-2.768.555-.274 0-.246-.049.226-.394zM79.695 50.508c.04-.202.307-2.21.593-4.462.414-3.264.57-4.145.762-4.338.36-.36.487-.3.673.318.147.49.103.998-.348 4.065-.283 1.927-.572 3.692-.642 3.92-.086.285-.282.487-.618.64l-.492.223zM82.659 40.87c0-.028.23-.208.512-.402.509-.35 1.468-.607 5.19-1.392.92-.193 2.729-.69 4.019-1.105 1.29-.413 2.444-.733 2.563-.71.418.083-.98.877-1.834 1.042-.451.087-1.543.401-2.426.699a37.07 37.07 0 0 1-3.278.904c-.92.2-2.308.51-3.085.688-1.42.327-1.661.367-1.661.276zM50.552 47.016c0-.03.214-.216.477-.416.397-.304.857-.43 2.766-.761 6.78-1.176 9.608-1.911 15.6-4.055 1.76-.63 3.255-1.127 3.322-1.104.368.122-1.042.74-4.199 1.842-6.183 2.157-7.889 2.62-14.181 3.855-3.535.693-3.785.735-3.785.639zM33.961 69.84c-2.041-10.54-4.464-20.808-5.745-24.345-.264-.731-.48-1.401-.48-1.49 0-.087.328-.32.73-.518l.731-.359.143.57c.078.313.487 1.86.91 3.438.935 3.499 2.115 8.58 3.838 16.532.716 3.306 1.354 6.165 1.417 6.353.095.284.245-.073.891-2.118 2.824-8.933 4.46-13.025 7.426-18.57 1.017-1.9 1.319-2.356 1.695-2.556.252-.135.507-.247.568-.25.061-.003-.236.624-.66 1.395-1.98 3.603-3.87 7.794-5.217 11.579-.724 2.033-2.771 8.63-3.307 10.656-.521 1.973-.611 2.126-1.52 2.589l-.78.396z" style="opacity:.372284;fill:#00f;fill-opacity:1;stroke:#000;stroke-width:.859776;stroke-linecap:butt;stroke-linejoin:miter;stroke-dasharray:none;stroke-dashoffset:0;paint-order:markers stroke fill" transform="scale(.26458)"/></svg>